<svg xmlns="http://www.w3.org/2000/svg" width="24" height="24" viewBox="0 0 24 24" fill="none" stroke="currentColor" stroke-width="2" stroke-linecap="round" stroke-linejoin="round"><path d="M11.562 3.266a.5.5 0 0 1 .876 0L15.39 8.87a1 1 0 0 0 .564.41l5.418 1.1a.5.5 0 0 1 .27.852l-3.742 4.075a1 1 0 0 0-.21.62l.37 5.539a.5.5 0 0 1-.725.469l-5.053-2.456a1 1 0 0 0-.564 0l-5.053 2.456a.5.5 0 0 1-.725-.469l.37-5.539a1 1 0 0 0-.21-.62L2.378 11.232a.5.5 0 0 1 .27-.852l5.418-1.1a1 1 0 0 0 .564-.41z"/></svg>
